PathFileType	4	(X/Y/Z)	Run_300 01
DataRate	CameraRate	NumFrames	NumMarkers	Units	OrigDataRate	OrigDataStartFrame	OrigNumFrames
120	120	4	42	mm	120	80	128
Frame#	Time	LASI			RASI			LPSI			RPSI			RTH1			RTH3			LTH1			LTH2			LTH3			RTB1			RTB2			RTB3			LTB1			LTB2			LTB3			RCAL			RTOE			RMT5			LCAL			LTOE			LMT5			LACR			RACR			CLAV			C7			RUA1			RUA2			RUA3			RLEL			RMEL			LUA1			LUA2			LUA3			LLEL			LMEL			RFAsuperior			RFAradius			RFAulna			LFAsuperior			LFAradius			LFAulna			RTH2			
		X1	Y1	Z1	X2	Y2	Z2	X3	Y3	Z3	X4	Y4	Z4	X5	Y5	Z5	X6	Y6	Z6	X7	Y7	Z7	X8	Y8	Z8	X9	Y9	Z9	X10	Y10	Z10	X11	Y11	Z11	X12	Y12	Z12	X13	Y13	Z13	X14	Y14	Z14	X15	Y15	Z15	X16	Y16	Z16	X17	Y17	Z17	X18	Y18	Z18	X19	Y19	Z19	X20	Y20	Z20	X21	Y21	Z21	X22	Y22	Z22	X23	Y23	Z23	X24	Y24	Z24	X25	Y25	Z25	X26	Y26	Z26	X27	Y27	Z27	X28	Y28	Z28	X29	Y29	Z29	X30	Y30	Z30	X31	Y31	Z31	X32	Y32	Z32	X33	Y33	Z33	X34	Y34	Z34	X35	Y35	Z35	X36	Y36	Z36	X37	Y37	Z37	X38	Y38	Z38	X39	Y39	Z39	X40	Y40	Z40	X41	Y41	Z41	X42	Y42	Z42	

66	0.691667	1060.026351	979.909827	-439.366398	1056.567939	980.861024	-203.180948	893.6498800000001	1021.959503	-374.332159	892.401945	1019.841422	-278.04918	1040.928653	825.33881	-151.559534	1186.966179	644.192271	-185.492153	987.942601	811.724008	-499.181364	1057.955555	708.783036	-480.244953	978.489988	585.543019	-456.517676	1189.760963	452.780658	-249.094647	1106.338582	460.598591	-196.786009	1037.76524	353.849819	-254.82743	972.1472220000001	347.118317	-388.167672	883.776449	286.881648	-429.761792	850.383416	197.856459	-360.851858	850.256086	351.226918	-297.055352	979.893409	185.396125	-284.614461	934.6776589999999	184.593615	-184.322136	677.630682	133.342311	-353.88619	873.106954	74.33448199999999	-309.145191	858.5959769999999	41.138929	-417.024092	1088.291517	1451.690488	-525.061637	1033.7611	1454.54401	-160.545206	1124.55018	1403.422424	-305.983955	1022.302726	1493.742823	-356.604083	979.485609	1387.626223	-122.849208	955.649054	1305.053108	-132.929367	874.996711	1331.658322	-149.3403	803.500735	1242.654174	-126.432183	812.813716	1230.841905	-192.609101	1063.474904	1372.071871	-577.439239	994.434635	1323.561256	-566.828653	1051.603394	1269.627042	-599.617399	983.818626	1173.448879	-639.0269960000001	935.620807	1170.126634	-579.888009	855.441571	1171.412851	-86.02769000000001	926.309975	1004.402911	-68.879498	866.184483	983.187663	-93.80342	1064.076361	1175.968528	-608.208925	1195.778308	1197.137661	-473.745075	1200.741274	1130.803083	-479.41105	1190.447521	747.053751	-174.485121	
67	0.7	1062.02854	984.913595	-439.639121	1057.369928	989.01523	-203.768855	895.866439	1028.933971	-376.031355	893.318683	1027.322322	-279.43391	1043.20181	835.148599	-150.235781	1189.98738	654.915873	-185.00234	984.593987	817.101791	-498.736085	1050.792955	712.210167	-478.400734	965.759594	592.376774	-455.854267	1202.624363	459.015933	-248.563776	1117.966304	460.092044	-196.741382	1058.92226	347.412716	-255.206955	953.128591	353.448399	-387.974979	864.785348	293.943237	-430.76158	830.623998	204.505437	-361.978957	873.166973	328.582445	-300.154208	1015.91065	174.525187	-284.251468	969.293539	170.646265	-184.554926	657.994455	143.368235	-355.414876	849.702077	75.188929	-309.717084	833.546705	41.299957	-416.592983	1090.901718	1460.706145	-523.130813	1030.677792	1462.575331	-160.649661	1124.134115	1411.864793	-303.770818	1022.609731	1501.267071	-356.032389	975.623366	1396.956132	-123.533047	951.685806	1314.125693	-133.732961	871.395262	1341.351932	-151.559464	798.432303	1253.3011	-130.630865	809.19041	1241.232241	-196.668592	1067.427839	1381.026494	-576.074485	999.053265	1332.076389	-567.376138	1057.448321	1278.27644	-598.302035	991.022065	1180.995756	-638.292497	941.607249	1177.699043	-580.283019	849.651972	1182.737232	-88.419833	920.1569009999999	1015.60219	-68.108453	860.295056	994.0975539999999	-93.67735999999999	1070.575545	1186.133047	-606.385206	1198.093009	1214.680445	-469.093153	1205.880154	1148.572368	-474.126318	1192.828137	757.844255	-174.044158	
68	0.708333	1064.476516	990.376016	-439.793885	1058.313736	997.4991	-204.258094	898.561812	1036.335858	-377.99704	894.527736	1035.192341	-280.948033	1045.643928	845.724344	-148.763692	1191.401005	664.899065	-184.764729	981.575397	823.2655099999999	-498.173839	1044.378631	716.485245	-476.439613	954.046017	600.272506	-455.865957	1214.253504	464.541917	-247.790421	1128.917252	458.728179	-196.493141	1080.403717	340.877714	-255.48381	935.0290659999999	360.963741	-387.876088	847.00863	301.860779	-432.107768	812.263496	211.977715	-363.485788	897.715403	306.362505	-302.846328	1052.611943	164.838547	-284.005563	1004.936634	157.456998	-185.073	639.97357	154.489934	-356.884491	826.839372	75.727844	-310.239904	808.854655	41.799604	-416.670406	1093.41342	1469.914346	-521.1602349999999	1027.992693	1470.794606	-160.694152	1123.881037	1420.63205	-301.525106	1023.005358	1509.091169	-355.330828	972.287279	1406.347282	-124.090111	948.284221	1323.215567	-134.763056	868.3423749999999	1351.304451	-153.373268	794.062271	1264.121476	-134.360631	805.6828870000001	1252.065406	-200.208658	1071.210867	1390.384275	-574.77778	1003.173706	1341.152853	-567.836965	1062.680611	1287.433938	-597.043306	997.340558	1189.264953	-637.592438	946.722765	1186.048889	-580.655937	844.7927979999999	1194.120087	-90.684299	914.8516519999999	1026.859179	-67.728813	855.2294020000001	1005.02298	-93.608942	1076.188583	1196.777602	-604.760442	1199.420684	1231.96608	-464.940083	1209.728567	1166.119706	-469.210449	1194.508933	767.744642	-173.691779	
69	0.7166670000000001	1067.254665	996.103703	-439.66123	1059.304084	1006.213699	-204.711097	901.6058379999999	1043.976438	-380.13083	896.03428	1043.339771	-282.629743	1048.121291	856.765323	-147.244004	1191.289809	673.83568	-184.836719	979.2693379999999	829.99364	-497.707336	1038.670007	721.331726	-474.437476	943.473492	608.795892	-456.581804	1224.712293	469.323907	-246.835787	1139.439834	456.518406	-195.94772	1102.055771	334.416209	-255.617744	918.065054	369.258479	-388.365806	830.392282	310.441157	-433.815896	795.434651	220.015541	-365.350806	923.695375	285.012408	-304.803471	1089.593409	156.379666	-284.235263	1041.508474	144.981477	-186.056894	623.7302089999999	166.604878	-358.311408	804.409865	76.00938499999999	-310.651702	784.490526	42.640503	-417.060574	1095.830166	1479.139881	-519.19042	1025.736009	1479.016541	-160.632615	1123.715939	1429.482873	-299.3503	1023.488707	1516.976394	-354.56631	969.43069	1415.679504	-124.560238	945.344438	1332.323038	-135.78099	865.763807	1361.314842	-154.946804	790.374067	1274.945021	-137.56846	802.516195	1262.973205	-203.203066	1074.853943	1399.967444	-573.618433	1006.806387	1350.664364	-568.13905	1067.288499	1296.915551	-595.885809	1002.8056	1198.042016	-637.0064180000001	951.037857	1194.929322	-581.015176	840.641619	1205.369819	-92.716069	910.343251	1037.974413	-67.673136	851.062272	1015.830953	-93.706473	1080.989472	1207.70905	-603.340194	1199.942643	1248.713534	-461.279097	1212.477952	1183.131225	-464.506537	1195.348891	776.539405	-173.458215	
